<?xml version="1.0" encoding="UTF-8"?>
<!DOCTYPE svg PUBLIC "-//W3C//DTD SVG 1.1//EN" "http://www.w3.org/Graphics/SVG/1.1/DTD/svg11.dtd">
<svg xmlns="http://www.w3.org/2000/svg" version="1.1" width="1198px" height="407px" style="shape-rendering:geometricPrecision; text-rendering:geometricPrecision; image-rendering:optimizeQuality; fill-rule:evenodd; clip-rule:evenodd" xmlns:xlink="http://www.w3.org/1999/xlink">
<g><path style="opacity:0.999" fill="#000000" d="M -0.5,-0.5 C 398.833,-0.5 798.167,-0.5 1197.5,-0.5C 1197.5,135.167 1197.5,270.833 1197.5,406.5C 798.167,406.5 398.833,406.5 -0.5,406.5C -0.5,270.833 -0.5,135.167 -0.5,-0.5 Z"/></g>
<g><path style="opacity:1" fill="#ebda4b" d="M 587.5,161.5 C 592.873,162.187 598.207,162.187 603.5,161.5C 608.729,163.118 614.062,164.118 619.5,164.5C 619.5,169.833 619.5,175.167 619.5,180.5C 612.793,181.353 607.46,184.52 603.5,190C 600.021,193.082 596.021,194.415 591.5,194C 586.932,189.263 582.265,184.763 577.5,180.5C 576.505,175.208 576.172,169.875 576.5,164.5C 580.706,165.055 584.373,164.055 587.5,161.5 Z"/></g>
<g><path style="opacity:1" fill="#0f0d04" d="M 589.5,164.5 C 591.288,164.215 592.955,164.548 594.5,165.5C 591.859,167.804 589.192,170.138 586.5,172.5C 585.417,173.365 585.251,174.365 586,175.5C 590.465,178.408 594.632,178.075 598.5,174.5C 601.006,177.174 603.339,180.008 605.5,183C 604.352,184.726 603.185,184.559 602,182.5C 601.333,184.5 600.667,186.5 600,188.5C 599.28,186.745 598.113,185.911 596.5,186C 595.289,187.113 595.289,188.28 596.5,189.5C 596.113,190.72 595.28,191.387 594,191.5C 589.717,187.052 585.217,182.719 580.5,178.5C 579.511,174.893 579.177,171.226 579.5,167.5C 583.258,167.605 586.592,166.605 589.5,164.5 Z"/></g>
<g><path style="opacity:1" fill="#090802" d="M 600.5,164.5 C 605.815,165.484 611.148,166.484 616.5,167.5C 618.123,174.46 615.623,178.794 609,180.5C 605.866,177.694 603.033,174.528 600.5,171C 597.906,170.551 595.906,171.551 594.5,174C 593.056,174.781 591.723,174.614 590.5,173.5C 593.879,170.449 597.212,167.449 600.5,164.5 Z"/></g>
<g><path style="opacity:1" fill="#fcea51" d="M 448.5,180.5 C 488.5,180.5 528.5,180.5 568.5,180.5C 568.5,182.167 568.5,183.833 568.5,185.5C 528.5,185.5 488.5,185.5 448.5,185.5C 448.5,183.833 448.5,182.167 448.5,180.5 Z"/></g>
<g><path style="opacity:1" fill="#fcea51" d="M 637.5,180.5 C 674.167,180.5 710.833,180.5 747.5,180.5C 747.5,182.167 747.5,183.833 747.5,185.5C 710.833,185.5 674.167,185.5 637.5,185.5C 637.5,183.833 637.5,182.167 637.5,180.5 Z"/></g>
<g><path style="opacity:1" fill="#fcea51" d="M 478.5,190.5 C 508.5,190.5 538.5,190.5 568.5,190.5C 568.5,192.167 568.5,193.833 568.5,195.5C 538.5,195.5 508.5,195.5 478.5,195.5C 478.5,193.833 478.5,192.167 478.5,190.5 Z"/></g>
<g><path style="opacity:1" fill="#fcea51" d="M 627.5,190.5 C 657.5,190.5 687.5,190.5 717.5,190.5C 717.5,192.167 717.5,193.833 717.5,195.5C 687.5,195.5 657.5,195.5 627.5,195.5C 627.5,193.833 627.5,192.167 627.5,190.5 Z"/></g>
<g><path style="opacity:1" fill="#726a24" d="M 493.5,215.5 C 493.5,226.5 493.5,237.5 493.5,248.5C 495.833,248.5 498.167,248.5 500.5,248.5C 498.052,249.473 495.385,249.806 492.5,249.5C 492.172,237.988 492.505,226.654 493.5,215.5 Z"/></g>
<g><path style="opacity:1" fill="#fcea51" d="M 493.5,215.5 C 495.833,215.5 498.167,215.5 500.5,215.5C 500.334,219.514 500.501,223.514 501,227.5C 503.841,225.496 507.007,224.996 510.5,226C 512,226.833 513.167,228 514,229.5C 514.5,235.825 514.666,242.158 514.5,248.5C 512.167,248.5 509.833,248.5 507.5,248.5C 507.821,242.974 507.488,237.64 506.5,232.5C 505.068,230.353 503.235,230.02 501,231.5C 500.501,237.157 500.334,242.824 500.5,248.5C 498.167,248.5 495.833,248.5 493.5,248.5C 493.5,237.5 493.5,226.5 493.5,215.5 Z"/></g>
<g><path style="opacity:1" fill="#8e842d" d="M 574.5,215.5 C 574.5,226.5 574.5,237.5 574.5,248.5C 576.833,248.5 579.167,248.5 581.5,248.5C 579.052,249.473 576.385,249.806 573.5,249.5C 573.172,237.988 573.505,226.654 574.5,215.5 Z"/></g>
<g><path style="opacity:1" fill="#fae850" d="M 574.5,215.5 C 576.833,215.5 579.167,215.5 581.5,215.5C 581.5,226.5 581.5,237.5 581.5,248.5C 579.167,248.5 576.833,248.5 574.5,248.5C 574.5,237.5 574.5,226.5 574.5,215.5 Z"/></g>
<g><path style="opacity:1" fill="#968b30" d="M 685.5,215.5 C 685.5,226.5 685.5,237.5 685.5,248.5C 687.833,248.5 690.167,248.5 692.5,248.5C 690.052,249.473 687.385,249.806 684.5,249.5C 684.172,237.988 684.505,226.654 685.5,215.5 Z"/></g>
<g><path style="opacity:1" fill="#f9e750" d="M 685.5,215.5 C 687.833,215.5 690.167,215.5 692.5,215.5C 692.5,226.5 692.5,237.5 692.5,248.5C 690.167,248.5 687.833,248.5 685.5,248.5C 685.5,237.5 685.5,226.5 685.5,215.5 Z"/></g>
<g><path style="opacity:1" fill="#f1e04d" d="M 450.5,217.5 C 453.247,217.187 455.914,217.52 458.5,218.5C 459.728,224.14 460.895,229.806 462,235.5C 463.488,229.551 464.655,223.551 465.5,217.5C 468.167,217.5 470.833,217.5 473.5,217.5C 474.472,223.192 475.639,228.859 477,234.5C 478.769,228.949 479.935,223.282 480.5,217.5C 483.167,217.5 485.833,217.5 488.5,217.5C 486.401,227.825 484.235,238.159 482,248.5C 479.281,249.444 476.448,249.777 473.5,249.5C 472.487,243.751 471.153,238.085 469.5,232.5C 468.005,238.145 466.672,243.811 465.5,249.5C 462.552,249.777 459.719,249.444 457,248.5C 455.26,238.052 453.093,227.719 450.5,217.5 Z"/></g>
<g><path style="opacity:1" fill="#f7e64f" d="M 601.5,217.5 C 607.593,217.139 613.593,217.639 619.5,219C 628.048,227.369 628.715,236.369 621.5,246C 615.249,249.191 608.582,250.357 601.5,249.5C 601.5,238.833 601.5,228.167 601.5,217.5 Z"/></g>
<g><path style="opacity:1" fill="#988d31" d="M 609.5,223.5 C 609.5,229.833 609.5,236.167 609.5,242.5C 610.833,242.5 612.167,242.5 613.5,242.5C 612.081,243.451 610.415,243.784 608.5,243.5C 608.176,236.646 608.509,229.979 609.5,223.5 Z"/></g>
<g><path style="opacity:1" fill="#040301" d="M 609.5,223.5 C 613.355,222.845 616.188,224.179 618,227.5C 618.791,231.926 618.457,236.259 617,240.5C 616.184,241.823 615.017,242.489 613.5,242.5C 612.167,242.5 610.833,242.5 609.5,242.5C 609.5,236.167 609.5,229.833 609.5,223.5 Z"/></g>
<g><path style="opacity:1" fill="#f1e04d" d="M 525.5,225.5 C 536.889,223.349 542.555,228.016 542.5,239.5C 537.456,239.173 532.456,239.506 527.5,240.5C 530.558,244.143 534.058,244.476 538,241.5C 542.072,243.697 542.239,245.864 538.5,248C 527.681,251.764 521.348,248.097 519.5,237C 520.058,232.382 522.058,228.549 525.5,225.5 Z"/></g>
<g><path style="opacity:1" fill="#f6e44f" d="M 552.5,225.5 C 563.837,223.51 569.17,228.177 568.5,239.5C 563.833,239.5 559.167,239.5 554.5,239.5C 554.36,241.124 555.027,242.29 556.5,243C 559.466,243.895 562.133,243.395 564.5,241.5C 565.5,242.833 566.5,244.167 567.5,245.5C 560.692,251.164 554.192,250.83 548,244.5C 544.81,236.806 546.31,230.472 552.5,225.5 Z"/></g>
<g><path style="opacity:1" fill="#f4e34e" d="M 637.5,225.5 C 648.837,223.51 654.17,228.177 653.5,239.5C 648.786,239.173 644.12,239.507 639.5,240.5C 640.412,242.743 642.078,243.743 644.5,243.5C 646.658,243.079 648.658,242.579 650.5,242C 652.922,244.112 652.922,246.112 650.5,248C 639.371,252.276 633.038,248.609 631.5,237C 631.559,232.045 633.559,228.212 637.5,225.5 Z"/></g>
<g><path style="opacity:1" fill="#f1e04d" d="M 662.5,225.5 C 666.182,225.335 669.848,225.501 673.5,226C 674.931,226.465 676.097,227.299 677,228.5C 678.125,235.11 678.959,241.776 679.5,248.5C 676.355,249.995 673.522,249.662 671,247.5C 662.244,251.723 657.911,249.056 658,239.5C 661.021,235.247 665.187,233.581 670.5,234.5C 670.5,233.167 670.5,231.833 670.5,230.5C 666.723,231.994 662.723,232.661 658.5,232.5C 658.961,229.697 660.295,227.363 662.5,225.5 Z"/></g>
<g><path style="opacity:1" fill="#f4e34e" d="M 702.5,225.5 C 706.182,225.335 709.848,225.501 713.5,226C 716.534,227.191 718.201,229.358 718.5,232.5C 714.476,232.956 710.976,231.956 708,229.5C 705.5,230.333 705,231.833 706.5,234C 711.055,234.361 714.888,236.194 718,239.5C 719.157,243.346 717.991,246.179 714.5,248C 708.067,250.847 702.567,249.681 698,244.5C 697.517,243.552 697.351,242.552 697.5,241.5C 701.46,241.298 704.96,242.298 708,244.5C 709.662,244.612 710.829,243.946 711.5,242.5C 707.046,240.834 702.88,238.501 699,235.5C 698.333,233.5 698.333,231.5 699,229.5C 700.376,228.295 701.542,226.962 702.5,225.5 Z"/></g>
<g><path style="opacity:1" fill="#18160a" d="M 529.5,230.5 C 532.95,229.756 534.616,231.09 534.5,234.5C 532.076,234.808 529.743,234.474 527.5,233.5C 528.193,232.482 528.859,231.482 529.5,230.5 Z"/></g>
<g><path style="opacity:1" fill="#181509" d="M 560.5,232.5 C 560.03,233.693 559.03,234.36 557.5,234.5C 556.274,234.48 555.274,234.147 554.5,233.5C 554.484,231.516 555.484,230.516 557.5,230.5C 559.038,230.453 560.038,231.12 560.5,232.5 Z"/></g>
<g><path style="opacity:1" fill="#121005" d="M 646.5,234.5 C 643.941,234.802 641.607,234.468 639.5,233.5C 642.426,229.361 644.759,229.694 646.5,234.5 Z"/></g>
<g><path style="opacity:1" fill="#82792a" d="M 506.5,232.5 C 507.488,237.64 507.821,242.974 507.5,248.5C 509.833,248.5 512.167,248.5 514.5,248.5C 512.052,249.473 509.385,249.806 506.5,249.5C 506.5,243.833 506.5,238.167 506.5,232.5 Z"/></g>
<g><path style="opacity:1" fill="#837a2a" d="M 560.5,232.5 C 561.404,233.209 561.737,234.209 561.5,235.5C 558.753,235.813 556.086,235.48 553.5,234.5C 553.624,233.893 553.957,233.56 554.5,233.5C 555.274,234.147 556.274,234.48 557.5,234.5C 559.03,234.36 560.03,233.693 560.5,232.5 Z"/></g>
<g><path style="opacity:1" fill="#91862e" d="M 639.5,233.5 C 641.607,234.468 643.941,234.802 646.5,234.5C 643.976,235.8 641.309,235.8 638.5,234.5C 638.624,233.893 638.957,233.56 639.5,233.5 Z"/></g>
<g><path style="opacity:1" fill="#161408" d="M 666.5,238.5 C 667.833,238.5 669.167,238.5 670.5,238.5C 671.575,242.938 669.908,244.938 665.5,244.5C 665.325,242.379 665.659,240.379 666.5,238.5 Z"/></g>
</svg>
